<?xml version="1.0" encoding="UTF-8"?>
<svg id="Layer_1" data-name="Layer 1" xmlns="http://www.w3.org/2000/svg" xmlns:xlink="http://www.w3.org/1999/xlink" viewBox="0 0 368.56 173.28">
  <defs>
    <style>
      .cls-1 {
        fill: url(#linear-gradient-2);
      }

      .cls-2 {
        fill: url(#linear-gradient-6);
      }

      .cls-3 {
        fill: url(#linear-gradient-5);
      }

      .cls-4 {
        fill: url(#linear-gradient-7);
      }

      .cls-5 {
        fill: url(#linear-gradient-9);
      }

      .cls-6 {
        fill: url(#linear-gradient-3);
      }

      .cls-7 {
        fill: url(#linear-gradient);
      }

      .cls-8 {
        fill: url(#linear-gradient-4);
      }

      .cls-9 {
        fill: url(#linear-gradient-8);
      }
    </style>
    <linearGradient id="linear-gradient" x1="-40.95" y1="26.37" x2="384.55" y2="210.29" gradientUnits="userSpaceOnUse">
      <stop offset="0" stop-color="#007a4c"/>
      <stop offset="1" stop-color="#00ae6a"/>
    </linearGradient>
    <linearGradient id="linear-gradient-2" x1="-55.22" y1="59.39" x2="370.28" y2="243.3" xlink:href="#linear-gradient"/>
    <linearGradient id="linear-gradient-3" x1="-18.91" y1="-24.61" x2="406.59" y2="159.31" xlink:href="#linear-gradient"/>
    <linearGradient id="linear-gradient-4" x1="-11.45" y1="-41.87" x2="414.05" y2="142.05" xlink:href="#linear-gradient"/>
    <linearGradient id="linear-gradient-5" x1="-2.04" y1="-63.63" x2="423.46" y2="120.28" xlink:href="#linear-gradient"/>
    <linearGradient id="linear-gradient-6" x1="-31.73" y1="5.04" x2="393.77" y2="188.96" xlink:href="#linear-gradient"/>
    <linearGradient id="linear-gradient-7" x1="-19.27" y1="-23.77" x2="406.23" y2="160.14" xlink:href="#linear-gradient"/>
    <linearGradient id="linear-gradient-8" x1="-9.02" y1="-47.5" x2="416.48" y2="136.42" xlink:href="#linear-gradient"/>
    <linearGradient id="linear-gradient-9" x1="-63.92" y1="79.53" x2="361.58" y2="263.44" xlink:href="#linear-gradient"/>
  </defs>
  <path class="cls-7" d="M256,103.04c-5.08-8.14-12.68-13.85-20.35-20.91-4.88,6.71-9.94,12.74-13.93,19.41-4.32,7.23-2.18,11.82,5.72,14.74,5.34,1.97,10.69,3.91,16.2,5.92,.97-2.37,2.1-5.1,3.52-8.56,2.26,4.11,3.56,7.61,2.19,11.63-.13,.39-.29,.74-.46,1.08-20.95,6.25-44.08,13.73-48.11,15.01-9.99,3.17-19.95,6.51-30.1,9.07-6.32,1.59-12.89,1.03-19.02-1.76-9.39-4.26-13.86-15.78-9.5-24.82,13.84,5.08,28.11,4.46,42.41,2.63,8.84-1.13,17.63-2.96,22.88-11.15,2.96-4.62,5.16-9.78,7.3-14.86,1.4-3.32,1.15-6.89-1.26-9.85-5.88-7.22-17.74-15.3-30.78-9.85-6.53,2.73-12.71,6.52-18.59,10.51-4.57,3.1-8.55,7.1-13.11,11.1l-7.26,7.06c-4.07-2.89-9.93-8.68-12.42-13.21-.84-1.46-1.52-2.73-2.1-3.73-1.8-4.54-3.98-8.96-6.37-13.21-5.14-9.16-11.09-17.87-16.09-27.09-9.25-17.06-9.41-34.19,.84-51.05,.2-.33,.23-.78,.33-1.17-3.27,3.09-6.19,6.37-8.66,9.95-8.98,13.01-11.21,27.02-4.84,41.7,2.97,6.85,6.9,13.3,10.59,19.82,4.78,8.43,9.98,16.69,14.42,25.3,.12,.24,.23,.47,.35,.71,.03,.07,.06,.14,.09,.21,.38,.79,.75,1.58,1.11,2.38,3.35,7.86,4.35,16.09,2.17,24.65-.35,.23-.73,.45-1.16,.64-5.52,2.35-10.87,5.18-16.53,7.09-30.78,10.38-61.08,9.79-90.55-4.79-4.8-2.37-9.38-5.19-14.91-8.28,.93,1.32,1.22,1.92,1.68,2.36,7.84,7.49,15.59,15.08,23.59,22.39,5.02,4.58,11.22,6.81,18,7.27,6.34,.43,12.68,1.05,19.02,.98,16.27-.18,32.19-2.47,47.45-8.6,10.92-4.39,19.12-14.87,21.5-27.72,1.65,1.71,3.35,3.23,4.96,4.44,.66,.49,.81,2.18,.61,3.19-.75,3.72-2.05,7.35-2.6,11.1-1.87,12.8,4.44,24.2,15.11,27.67,6.46,2.1,13.17,2.18,19.51,.31,9.82-2.89,19.38-6.66,29.05-10.05,2.75-.97,40.29-13.92,43.69-15.1,0,0,0,.02,0,.03,5.6-3.03,10.02-8.05,13.6-14.19,3.73-6.41,5.14-13.51,.83-20.42Zm-26.54-8.31c4.37,3.92,8.62,7.74,12.87,11.55-8.55,.09-16.17-5.13-12.87-11.55Zm-47.22-2.57c9.07-1.78,20.75,4.14,25.51,12.16,1.58,2.67,1.15,4.08-1.83,5.06-6.85,2.26-13.54,3.79-20.44,4.94-10.98,1.83-26.36,.66-36.17-2.24,10.28-8.71,19.81-17.36,32.93-19.93Z"/>
  <path class="cls-1" d="M16.02,97.44c3.72,.51,4.1,2.78,5.26,4.98,.85,1.63,1.37,3.42,2.18,5.07,.34,.7,1.02,1.23,2.08,2.46,.25-2.1,.39-3.31,.53-4.53,.55-4.68,.8-9.43,1.74-14.03,.91-4.45,2.09-4.88,6.44-3.42-.23-1.83-.11-3.65-.76-5.15-.39-.91-2.03-1.92-2.96-1.79-1.08,.15-2.6,1.34-2.87,2.36-1.38,5.06-2.41,10.22-3.7,15.93-2.41-6.24-4.42-12.51-11.72-14.12-3.2,6.27-1.89,11.44,3.79,12.23Z"/>
  <path class="cls-6" d="M178.35,52.04c-.14-.11-.43-.03-.72-.05-1.48,1.38-3,2.78-4.51,4.19-1.52,1.42-3.04,2.85-4.29,4.03,3.62,3.37,6.78,6.32,9.94,9.26,9.15-9.79,10.68-9.02-.42-17.43Z"/>
  <path class="cls-8" d="M231.03,54.32c-.14-.11-.43-.03-.72-.05-1.48,1.38-3,2.78-4.51,4.19-1.52,1.42-3.04,2.85-4.29,4.03,3.62,3.37,6.78,6.32,9.94,9.26,9.15-9.79,10.68-9.02-.42-17.43Z"/>
  <path class="cls-3" d="M244.5,28.24c-.91,.93-1.66,2.27-2.77,2.74-10.18,4.28-20.43,8.41-30.66,12.58-.17,.07-.42-.04-1.36-.16,1.19-1.43,1.91-3.11,3.12-3.63,10.23-4.35,20.55-8.49,30.84-12.69,.28,.39,.55,.77,.83,1.16Z"/>
  <path class="cls-2" d="M356.02,157.95c-.91,.93-1.66,2.27-2.77,2.74-10.18,4.28-20.43,8.41-30.66,12.58-.17,.07-.42-.04-1.36-.16,1.19-1.43,1.91-3.11,3.12-3.63,10.23-4.35,20.55-8.49,30.84-12.69,.28,.39,.55,.77,.83,1.16Z"/>
  <path class="cls-4" d="M271.03,126.46c8.51-.35,13.68-1.13,15.52-2.34,1.84-1.21,3.97-3.51,6.38-6.91,2.9-4.04,4.36-7.4,4.36-10.1s-2.18-4.15-6.54-4.15-6.54-.5-6.54-1.49c0-2.83,2.2-4.64,6.59-5.42,.35-.07,1.05-1.38,2.07-3.94,1.03-2.55,1.54-4.29,1.54-5.21,0-.43-.29-.64-.85-.64-2.34,0-5.51,2.82-9.52,8.45-4.01,5.64-6.01,10.23-6.01,13.77s4.11,5.6,12.33,5.74c-.85,1.7-3.72,3.65-8.61,5.85-3.62,1.49-7.27,2.98-10.95,4.47-1.21,.5-1.81,.92-1.81,1.28,0,.5,.67,.71,2.02,.64Z"/>
  <path class="cls-9" d="M366.49,101.46c-1.77-5.97-4.71-11.52-7.74-16.93-5.14-9.16-11.09-17.87-16.09-27.09-9.25-17.06-9.41-34.19,.84-51.05,.2-.33,.23-.78,.33-1.17-3.27,3.09-6.19,6.37-8.66,9.95-8.98,13.01-11.21,27.02-4.84,41.7,2.97,6.85,6.9,13.3,10.59,19.82,4.78,8.43,10.14,16.55,14.57,25.15,1.87,4.65,3.93,9.16,4.77,14.14,.18,1.04,.32,2.08,.44,3.12,.04,.35,.08,.7,.11,1.04,.2,1.96,.46,4.96-1.9,5.74-6.85,2.26-13.54,3.79-20.44,4.94-.73,.12-1.48,.22-2.25,.32,2.38-7.88,3.38-16.65,.61-24.63-1.99-5.74-4.67-11.32-7.64-16.62-5.14-9.16-11.09-17.87-16.09-27.09-9.25-17.06-9.41-34.19,.84-51.05,.2-.33,.23-.78,.33-1.17-3.27,3.09-6.19,6.37-8.66,9.95-8.98,13.01-11.21,27.02-4.84,41.7,2.97,6.85,6.9,13.3,10.59,19.82,4.78,8.43,10.14,16.55,14.57,25.15,4.53,8.78,6.05,18.19,3.62,27.9-.37,.28-.76,.56-1.22,.83-5.48,3.29-10.87,5.18-16.53,7.09-30.78,10.38-61.08,9.79-90.55-4.79-4.8-2.37-9.38-5.19-14.91-8.28,.93,1.32,1.22,1.92,1.68,2.36,7.84,7.49,15.59,15.08,23.59,22.39,5.02,4.58,11.22,6.81,18,7.27,6.34,.43,12.68,1.05,19.02,.98,16.27-.18,32.19-2.47,47.45-8.6,6.13-2.46,10.94-5.97,14.41-10.59,2.35-.21,4.7-.47,7.05-.77,8.84-1.13,17.63-2.96,22.88-11.15,2.96-4.62,5.16-9.78,7.3-14.86,1.92-4.56,.1-11-1.24-15.53Z"/>
  <path class="cls-5" d="M112.52,165c1.43-4.66,6.22-12.37,10.5-4.54,.44,.87,.99,1.74,1.43,2.73h.31c.99-1.99,1.99-3.85,2.98-5.72v-.44c-.87-1.74-2.24-4.29-3.67-5.66-5.72-5.28-11.37,9.82-12.37,13.12-.19,.81,.68,1.06,.81,.5Z"/>
</svg>